<svg xmlns="http://www.w3.org/2000/svg" viewBox="0 0 900 680">
  <rect width="900" height="680" rx="50" fill="#dff3eb"/>
  <path d="M0 400L170 185l140 169 118-124 217 245 95-123 160 157v171H0z" fill="#2f6e61"/>
  <path d="M118 250l52-65 53 64-105 1zm254 39l56-59 57 65-113-6z" fill="#fff"/>
  <path d="M0 465c114-51 204-44 286 2 81 45 162 44 244-5 88-53 211-54 370 17v201H0z" fill="#67ba6b"/>
  <path d="M0 541c159-59 291-49 399 25 109 75 264 64 501-31v145H0z" fill="#f2c15b"/>
  <circle cx="731" cy="123" r="58" fill="#f4b942"/>
  <path d="M709 680c3-88 34-164 79-222 43 57 75 134 78 222H709z" fill="#c07f43"/>
  <path d="M680 501c62-44 130-44 199 0-21 26-54 39-98 39-44 0-77-13-101-39z" fill="#e8a65d"/>
  <g fill="#0b6b57"><path d="M126 532c0-71 31-125 76-163 45 38 76 92 76 163H126z"/><rect x="194" y="500" width="16" height="90"/><path d="M492 478c0-55 25-98 61-128 36 30 61 73 61 128H492z"/><rect x="546" y="455" width="14" height="76"/></g>
  <g fill="#fff" opacity=".85"><ellipse cx="189" cy="99" rx="90" ry="29"/><ellipse cx="271" cy="112" rx="55" ry="22"/></g>
</svg>